<?xml version="1.0" encoding="utf-8"?><svg viewBox="0 0 502.66 502.66" xmlns="http://www.w3.org/2000/svg" xmlns:xlink="http://www.w3.org/1999/xlink"><style>:root>svg{display:none}:root>svg:target{display:block}</style><svg viewBox="0 0 20 19" id="cart" xmlns="http://www.w3.org/2000/svg"><path d="M20 6.579h-3.396L13.036.319a.608.608 0 00-.858-.225.678.678 0 00-.214.902l3.182 5.583H4.854L8.036.996a.678.678 0 00-.214-.902.608.608 0 00-.858.225L3.396 6.58H0v1.316h1.357l1.587 8.915c.166.934.941 1.611 1.844 1.611h10.424c.902 0 1.678-.677 1.843-1.61l1.588-8.916H20V6.579zm-4.174 9.99a.634.634 0 01-.614.536H4.788a.634.634 0 01-.615-.537L2.628 7.895h14.744l-1.546 8.674z"/></svg><svg viewBox="0 0 26 20" id="eye" xmlns="http://www.w3.org/2000/svg"><path clip-rule="evenodd" d="M16.952 10.066a3.952 3.952 0 11-7.904-.001 3.952 3.952 0 017.904.001z"/><path clip-rule="evenodd" d="M12.998 19.194c4.76 0 9.113-3.423 11.565-9.128C22.11 4.361 17.758.94 12.998.94h.005c-4.76 0-9.114 3.422-11.566 9.127 2.452 5.705 6.805 9.128 11.566 9.128h-.005z"/></svg><svg viewBox="0 0 502.664 502.664" id="icon" xmlns="http://www.w3.org/2000/svg"><path d="M153.821 358.226L0 274.337v-46.463l153.821-83.414v54.574L46.636 250.523l107.185 53.431v54.272zm26.273 29.358L282.103 115.08h32.227L212.084 387.584h-31.99zm168.749-29.358v-54.272l107.164-52.999-107.164-52.59v-53.927l153.821 83.522v46.183l-153.821 84.083z"/></svg></svg>